<?xml version="1.0" encoding="UTF-8" standalone="no"?>
<!-- Created with Inkscape (http://www.inkscape.org/) -->

<svg
   xmlns:dc="http://purl.org/dc/elements/1.1/"
   xmlns:cc="http://creativecommons.org/ns#"
   xmlns:rdf="http://www.w3.org/1999/02/22-rdf-syntax-ns#"
   xmlns:svg="http://www.w3.org/2000/svg"
   xmlns="http://www.w3.org/2000/svg"
   xmlns:sodipodi="http://sodipodi.sourceforge.net/DTD/sodipodi-0.dtd"
   xmlns:inkscape="http://www.inkscape.org/namespaces/inkscape"
   width="200"
   height="100"
   id="svg2"
   version="1.1"
   inkscape:version="0.48.4 r9939"
   sodipodi:docname="src.svg">
  <defs
     id="defs4" />
  <sodipodi:namedview
     id="base"
     pagecolor="#ffffff"
     bordercolor="#666666"
     borderopacity="1.0"
     inkscape:pageopacity="0.0"
     inkscape:pageshadow="2"
     inkscape:zoom="16"
     inkscape:cx="21.437489"
     inkscape:cy="85.123843"
     inkscape:document-units="px"
     inkscape:current-layer="layer1"
     showgrid="true"
     inkscape:window-width="1366"
     inkscape:window-height="744"
     inkscape:window-x="0"
     inkscape:window-y="24"
     inkscape:window-maximized="1">
    <inkscape:grid
       type="xygrid"
       id="grid2985"
       empspacing="5"
       visible="true"
       enabled="true"
       snapvisiblegridlinesonly="true" />
  </sodipodi:namedview>
  <metadata
     id="metadata7">
    <rdf:RDF>
      <cc:Work
         rdf:about="">
        <dc:format>image/svg+xml</dc:format>
        <dc:type
           rdf:resource="http://purl.org/dc/dcmitype/StillImage" />
        <dc:title></dc:title>
      </cc:Work>
    </rdf:RDF>
  </metadata>
  <g
     inkscape:label="Layer 1"
     inkscape:groupmode="layer"
     id="layer1"
     transform="translate(0,-952.36218)">
    <rect
       style="fill:#4d4d4d;fill-opacity:1;fill-rule:nonzero;stroke:none"
       id="rect3780"
       width="60"
       height="25"
       x="0"
       y="0"
       transform="translate(0,952.36218)" />
    <path
       inkscape:export-xdpi="89.996864"
       inkscape:export-ydpi="89.996864"
       style="fill:#ffffff;stroke:none"
       d="m 18.09695,955.13135 -5.599999,0 -9.9999993,10 7.9999993,8 9.999999,-10.00001 0,-5.59999 z m -0.399999,2.8 c 0.883655,0.88365 0.883654,2.31634 0,3.19999 -0.883655,0.88366 -2.316344,0.88366 -3.2,0 -0.883656,-0.88365 -0.883655,-2.31634 0,-3.19999 0.883654,-0.88366 2.316344,-0.88366 3.2,0 z"
       id="tag-20"
       inkscape:connector-curvature="0"
       inkscape:label="tag-20"
       sodipodi:nodetypes="cccccccsssss" />
    <path
       style="fill:#ffffff;fill-opacity:1;fill-rule:nonzero;stroke:none"
       d="M 30,2 29,4 C 26,4 25,7 25,7 L 38,7 C 38,7 37,4 34,4 L 33,2 z M 25.25,9 28,21 35,21 37.75,9 z"
       transform="translate(0,952.36218)"
       id="remove-20"
       inkscape:label="remove-20"
       inkscape:export-xdpi="89.996864"
       inkscape:export-ydpi="89.996864"
       inkscape:connector-curvature="0"
       sodipodi:nodetypes="cccccccccccc" />
  </g>
</svg>
